<?xml version="1.0" encoding="utf-8" standalone="no"?>
<!DOCTYPE svg PUBLIC "-//W3C//DTD SVG 1.1//EN"
  "http://www.w3.org/Graphics/SVG/1.1/DTD/svg11.dtd">
<svg xmlns:xlink="http://www.w3.org/1999/xlink" width="459.940625pt" height="337.074375pt" viewBox="0 0 459.940625 337.074375" xmlns="http://www.w3.org/2000/svg" version="1.1">
 <metadata>
  <rdf:RDF xmlns:dc="http://purl.org/dc/elements/1.1/" xmlns:cc="http://creativecommons.org/ns#" xmlns:rdf="http://www.w3.org/1999/02/22-rdf-syntax-ns#">
   <cc:Work>
    <dc:type rdf:resource="http://purl.org/dc/dcmitype/StillImage"/>
    <dc:date>2025-10-22T14:17:15.395361</dc:date>
    <dc:format>image/svg+xml</dc:format>
    <dc:creator>
     <cc:Agent>
      <dc:title>Matplotlib v3.10.3, https://matplotlib.org/</dc:title>
     </cc:Agent>
    </dc:creator>
   </cc:Work>
  </rdf:RDF>
 </metadata>
 <defs>
  <style type="text/css">*{stroke-linejoin: round; stroke-linecap: butt}</style>
 </defs>
 <g id="figure_1">
  <g id="patch_1">
   <path d="M 0 337.074375 
L 459.940625 337.074375 
L 459.940625 0 
L 0 0 
z
" style="fill: #ffffff"/>
  </g>
  <g id="axes_1">
   <g id="patch_2">
    <path d="M 34.240625 299.518125 
L 452.740625 299.518125 
L 452.740625 22.318125 
L 34.240625 22.318125 
z
" style="fill: #ffffff"/>
   </g>
   <g id="PathCollection_1">
    <defs>
     <path id="md74000e3b5" d="M 0 2.236068 
C 0.593012 2.236068 1.161816 2.000462 1.581139 1.581139 
C 2.000462 1.161816 2.236068 0.593012 2.236068 0 
C 2.236068 -0.593012 2.000462 -1.161816 1.581139 -1.581139 
C 1.161816 -2.000462 0.593012 -2.236068 0 -2.236068 
C -0.593012 -2.236068 -1.161816 -2.000462 -1.581139 -1.581139 
C -2.000462 -1.161816 -2.236068 -0.593012 -2.236068 0 
C -2.236068 0.593012 -2.000462 1.161816 -1.581139 1.581139 
C -1.161816 2.000462 -0.593012 2.236068 0 2.236068 
z
" style="stroke: #1f77b4; stroke-opacity: 0.7"/>
    </defs>
    <g clip-path="url(#p15fc64ea3b)">
     <use xlink:href="#md74000e3b5" x="433.717898" y="113.059999" style="fill: #1f77b4; fill-opacity: 0.7; stroke: #1f77b4; stroke-opacity: 0.7"/>
     <use xlink:href="#md74000e3b5" x="391.650387" y="150.464943" style="fill: #1f77b4; fill-opacity: 0.7; stroke: #1f77b4; stroke-opacity: 0.7"/>
     <use xlink:href="#md74000e3b5" x="369.25747" y="155.413965" style="fill: #1f77b4; fill-opacity: 0.7; stroke: #1f77b4; stroke-opacity: 0.7"/>
     <use xlink:href="#md74000e3b5" x="355.382043" y="132.433389" style="fill: #1f77b4; fill-opacity: 0.7; stroke: #1f77b4; stroke-opacity: 0.7"/>
     <use xlink:href="#md74000e3b5" x="338.664127" y="119.010612" style="fill: #1f77b4; fill-opacity: 0.7; stroke: #1f77b4; stroke-opacity: 0.7"/>
     <use xlink:href="#md74000e3b5" x="356.481789" y="67.187061" style="fill: #1f77b4; fill-opacity: 0.7; stroke: #1f77b4; stroke-opacity: 0.7"/>
     <use xlink:href="#md74000e3b5" x="302.435692" y="160.608709" style="fill: #1f77b4; fill-opacity: 0.7; stroke: #1f77b4; stroke-opacity: 0.7"/>
     <use xlink:href="#md74000e3b5" x="348.515281" y="66.111872" style="fill: #1f77b4; fill-opacity: 0.7; stroke: #1f77b4; stroke-opacity: 0.7"/>
     <use xlink:href="#md74000e3b5" x="299.176364" y="123.935363" style="fill: #1f77b4; fill-opacity: 0.7; stroke: #1f77b4; stroke-opacity: 0.7"/>
     <use xlink:href="#md74000e3b5" x="304.033207" y="175.810217" style="fill: #1f77b4; fill-opacity: 0.7; stroke: #1f77b4; stroke-opacity: 0.7"/>
    </g>
   </g>
   <g id="PathCollection_2">
    <defs>
     <path id="m0f252803e2" d="M 0 2.236068 
C 0.593012 2.236068 1.161816 2.000462 1.581139 1.581139 
C 2.000462 1.161816 2.236068 0.593012 2.236068 0 
C 2.236068 -0.593012 2.000462 -1.161816 1.581139 -1.581139 
C 1.161816 -2.000462 0.593012 -2.236068 0 -2.236068 
C -0.593012 -2.236068 -1.161816 -2.000462 -1.581139 -1.581139 
C -2.000462 -1.161816 -2.236068 -0.593012 -2.236068 0 
C -2.236068 0.593012 -2.000462 1.161816 -1.581139 1.581139 
C -1.161816 2.000462 -0.593012 2.236068 0 2.236068 
z
" style="stroke: #d62728; stroke-opacity: 0.7"/>
    </defs>
    <g clip-path="url(#p15fc64ea3b)">
     <use xlink:href="#m0f252803e2" x="145.170874" y="78.519791" style="fill: #d62728; fill-opacity: 0.7; stroke: #d62728; stroke-opacity: 0.7"/>
     <use xlink:href="#m0f252803e2" x="132.058174" y="76.490189" style="fill: #d62728; fill-opacity: 0.7; stroke: #d62728; stroke-opacity: 0.7"/>
     <use xlink:href="#m0f252803e2" x="53.263352" y="166.679384" style="fill: #d62728; fill-opacity: 0.7; stroke: #d62728; stroke-opacity: 0.7"/>
     <use xlink:href="#m0f252803e2" x="139.798525" y="34.918125" style="fill: #d62728; fill-opacity: 0.7; stroke: #d62728; stroke-opacity: 0.7"/>
    </g>
   </g>
   <g id="PathCollection_3">
    <defs>
     <path id="m1510329d7c" d="M 0 2.236068 
C 0.593012 2.236068 1.161816 2.000462 1.581139 1.581139 
C 2.000462 1.161816 2.236068 0.593012 2.236068 0 
C 2.236068 -0.593012 2.000462 -1.161816 1.581139 -1.581139 
C 1.161816 -2.000462 0.593012 -2.236068 0 -2.236068 
C -0.593012 -2.236068 -1.161816 -2.000462 -1.581139 -1.581139 
C -2.000462 -1.161816 -2.236068 -0.593012 -2.236068 0 
C -2.236068 0.593012 -2.000462 1.161816 -1.581139 1.581139 
C -1.161816 2.000462 -0.593012 2.236068 0 2.236068 
z
" style="stroke: #e377c2; stroke-opacity: 0.7"/>
    </defs>
    <g clip-path="url(#p15fc64ea3b)">
     <use xlink:href="#m1510329d7c" x="238.313392" y="120.913899" style="fill: #e377c2; fill-opacity: 0.7; stroke: #e377c2; stroke-opacity: 0.7"/>
     <use xlink:href="#m1510329d7c" x="209.902912" y="124.480588" style="fill: #e377c2; fill-opacity: 0.7; stroke: #e377c2; stroke-opacity: 0.7"/>
     <use xlink:href="#m1510329d7c" x="164.644807" y="286.918125" style="fill: #e377c2; fill-opacity: 0.7; stroke: #e377c2; stroke-opacity: 0.7"/>
     <use xlink:href="#m1510329d7c" x="154.902297" y="280.443238" style="fill: #e377c2; fill-opacity: 0.7; stroke: #e377c2; stroke-opacity: 0.7"/>
    </g>
   </g>
   <g id="PathCollection_4">
    <defs>
     <path id="mbe48d5cf11" d="M 0 2.236068 
C 0.593012 2.236068 1.161816 2.000462 1.581139 1.581139 
C 2.000462 1.161816 2.236068 0.593012 2.236068 0 
C 2.236068 -0.593012 2.000462 -1.161816 1.581139 -1.581139 
C 1.161816 -2.000462 0.593012 -2.236068 0 -2.236068 
C -0.593012 -2.236068 -1.161816 -2.000462 -1.581139 -1.581139 
C -2.000462 -1.161816 -2.236068 -0.593012 -2.236068 0 
C -2.236068 0.593012 -2.000462 1.161816 -1.581139 1.581139 
C -1.161816 2.000462 -0.593012 2.236068 0 2.236068 
z
" style="stroke: #17becf; stroke-opacity: 0.7"/>
    </defs>
    <g clip-path="url(#p15fc64ea3b)">
     <use xlink:href="#mbe48d5cf11" x="347.528613" y="102.398281" style="fill: #17becf; fill-opacity: 0.7; stroke: #17becf; stroke-opacity: 0.7"/>
     <use xlink:href="#mbe48d5cf11" x="352.018505" y="150.968968" style="fill: #17becf; fill-opacity: 0.7; stroke: #17becf; stroke-opacity: 0.7"/>
     <use xlink:href="#mbe48d5cf11" x="344.118513" y="102.259545" style="fill: #17becf; fill-opacity: 0.7; stroke: #17becf; stroke-opacity: 0.7"/>
     <use xlink:href="#mbe48d5cf11" x="336.501218" y="123.721133" style="fill: #17becf; fill-opacity: 0.7; stroke: #17becf; stroke-opacity: 0.7"/>
    </g>
   </g>
   <g id="matplotlib.axis_1">
    <g id="xtick_1">
     <g id="line2d_1">
      <path d="M 77.97771 299.518125 
L 77.97771 22.318125 
" clip-path="url(#p15fc64ea3b)" style="fill: none; stroke-dasharray: 2.96,1.28; stroke-dashoffset: 0; stroke: #b0b0b0; stroke-opacity: 0.5; stroke-width: 0.8"/>
     </g>
     <g id="line2d_2">
      <defs>
       <path id="mdb6a94bef8" d="M 0 0 
L 0 3.5 
" style="stroke: #000000; stroke-width: 0.8"/>
      </defs>
      <g>
       <use xlink:href="#mdb6a94bef8" x="77.97771" y="299.518125" style="stroke: #000000; stroke-width: 0.8"/>
      </g>
     </g>
     <g id="text_1">
      <!-- 17.0 -->
      <g transform="translate(66.844897 314.116563) scale(0.1 -0.1)">
       <defs>
        <path id="DejaVuSans-31" d="M 794 531 
L 1825 531 
L 1825 4091 
L 703 3866 
L 703 4441 
L 1819 4666 
L 2450 4666 
L 2450 531 
L 3481 531 
L 3481 0 
L 794 0 
L 794 531 
z
" transform="scale(0.015625)"/>
        <path id="DejaVuSans-37" d="M 525 4666 
L 3525 4666 
L 3525 4397 
L 1831 0 
L 1172 0 
L 2766 4134 
L 525 4134 
L 525 4666 
z
" transform="scale(0.015625)"/>
        <path id="DejaVuSans-2e" d="M 684 794 
L 1344 794 
L 1344 0 
L 684 0 
L 684 794 
z
" transform="scale(0.015625)"/>
        <path id="DejaVuSans-30" d="M 2034 4250 
Q 1547 4250 1301 3770 
Q 1056 3291 1056 2328 
Q 1056 1369 1301 889 
Q 1547 409 2034 409 
Q 2525 409 2770 889 
Q 3016 1369 3016 2328 
Q 3016 3291 2770 3770 
Q 2525 4250 2034 4250 
z
M 2034 4750 
Q 2819 4750 3233 4129 
Q 3647 3509 3647 2328 
Q 3647 1150 3233 529 
Q 2819 -91 2034 -91 
Q 1250 -91 836 529 
Q 422 1150 422 2328 
Q 422 3509 836 4129 
Q 1250 4750 2034 4750 
z
" transform="scale(0.015625)"/>
       </defs>
       <use xlink:href="#DejaVuSans-31"/>
       <use xlink:href="#DejaVuSans-37" transform="translate(63.623047 0)"/>
       <use xlink:href="#DejaVuSans-2e" transform="translate(127.246094 0)"/>
       <use xlink:href="#DejaVuSans-30" transform="translate(159.033203 0)"/>
      </g>
     </g>
    </g>
    <g id="xtick_2">
     <g id="line2d_3">
      <path d="M 133.408467 299.518125 
L 133.408467 22.318125 
" clip-path="url(#p15fc64ea3b)" style="fill: none; stroke-dasharray: 2.96,1.28; stroke-dashoffset: 0; stroke: #b0b0b0; stroke-opacity: 0.5; stroke-width: 0.8"/>
     </g>
     <g id="line2d_4">
      <g>
       <use xlink:href="#mdb6a94bef8" x="133.408467" y="299.518125" style="stroke: #000000; stroke-width: 0.8"/>
      </g>
     </g>
     <g id="text_2">
      <!-- 17.5 -->
      <g transform="translate(122.275654 314.116563) scale(0.1 -0.1)">
       <defs>
        <path id="DejaVuSans-35" d="M 691 4666 
L 3169 4666 
L 3169 4134 
L 1269 4134 
L 1269 2991 
Q 1406 3038 1543 3061 
Q 1681 3084 1819 3084 
Q 2600 3084 3056 2656 
Q 3513 2228 3513 1497 
Q 3513 744 3044 326 
Q 2575 -91 1722 -91 
Q 1428 -91 1123 -41 
Q 819 9 494 109 
L 494 744 
Q 775 591 1075 516 
Q 1375 441 1709 441 
Q 2250 441 2565 725 
Q 2881 1009 2881 1497 
Q 2881 1984 2565 2268 
Q 2250 2553 1709 2553 
Q 1456 2553 1204 2497 
Q 953 2441 691 2322 
L 691 4666 
z
" transform="scale(0.015625)"/>
       </defs>
       <use xlink:href="#DejaVuSans-31"/>
       <use xlink:href="#DejaVuSans-37" transform="translate(63.623047 0)"/>
       <use xlink:href="#DejaVuSans-2e" transform="translate(127.246094 0)"/>
       <use xlink:href="#DejaVuSans-35" transform="translate(159.033203 0)"/>
      </g>
     </g>
    </g>
    <g id="xtick_3">
     <g id="line2d_5">
      <path d="M 188.839224 299.518125 
L 188.839224 22.318125 
" clip-path="url(#p15fc64ea3b)" style="fill: none; stroke-dasharray: 2.96,1.28; stroke-dashoffset: 0; stroke: #b0b0b0; stroke-opacity: 0.5; stroke-width: 0.8"/>
     </g>
     <g id="line2d_6">
      <g>
       <use xlink:href="#mdb6a94bef8" x="188.839224" y="299.518125" style="stroke: #000000; stroke-width: 0.8"/>
      </g>
     </g>
     <g id="text_3">
      <!-- 18.0 -->
      <g transform="translate(177.706412 314.116563) scale(0.1 -0.1)">
       <defs>
        <path id="DejaVuSans-38" d="M 2034 2216 
Q 1584 2216 1326 1975 
Q 1069 1734 1069 1313 
Q 1069 891 1326 650 
Q 1584 409 2034 409 
Q 2484 409 2743 651 
Q 3003 894 3003 1313 
Q 3003 1734 2745 1975 
Q 2488 2216 2034 2216 
z
M 1403 2484 
Q 997 2584 770 2862 
Q 544 3141 544 3541 
Q 544 4100 942 4425 
Q 1341 4750 2034 4750 
Q 2731 4750 3128 4425 
Q 3525 4100 3525 3541 
Q 3525 3141 3298 2862 
Q 3072 2584 2669 2484 
Q 3125 2378 3379 2068 
Q 3634 1759 3634 1313 
Q 3634 634 3220 271 
Q 2806 -91 2034 -91 
Q 1263 -91 848 271 
Q 434 634 434 1313 
Q 434 1759 690 2068 
Q 947 2378 1403 2484 
z
M 1172 3481 
Q 1172 3119 1398 2916 
Q 1625 2713 2034 2713 
Q 2441 2713 2670 2916 
Q 2900 3119 2900 3481 
Q 2900 3844 2670 4047 
Q 2441 4250 2034 4250 
Q 1625 4250 1398 4047 
Q 1172 3844 1172 3481 
z
" transform="scale(0.015625)"/>
       </defs>
       <use xlink:href="#DejaVuSans-31"/>
       <use xlink:href="#DejaVuSans-38" transform="translate(63.623047 0)"/>
       <use xlink:href="#DejaVuSans-2e" transform="translate(127.246094 0)"/>
       <use xlink:href="#DejaVuSans-30" transform="translate(159.033203 0)"/>
      </g>
     </g>
    </g>
    <g id="xtick_4">
     <g id="line2d_7">
      <path d="M 244.269981 299.518125 
L 244.269981 22.318125 
" clip-path="url(#p15fc64ea3b)" style="fill: none; stroke-dasharray: 2.96,1.28; stroke-dashoffset: 0; stroke: #b0b0b0; stroke-opacity: 0.5; stroke-width: 0.8"/>
     </g>
     <g id="line2d_8">
      <g>
       <use xlink:href="#mdb6a94bef8" x="244.269981" y="299.518125" style="stroke: #000000; stroke-width: 0.8"/>
      </g>
     </g>
     <g id="text_4">
      <!-- 18.5 -->
      <g transform="translate(233.137169 314.116563) scale(0.1 -0.1)">
       <use xlink:href="#DejaVuSans-31"/>
       <use xlink:href="#DejaVuSans-38" transform="translate(63.623047 0)"/>
       <use xlink:href="#DejaVuSans-2e" transform="translate(127.246094 0)"/>
       <use xlink:href="#DejaVuSans-35" transform="translate(159.033203 0)"/>
      </g>
     </g>
    </g>
    <g id="xtick_5">
     <g id="line2d_9">
      <path d="M 299.700739 299.518125 
L 299.700739 22.318125 
" clip-path="url(#p15fc64ea3b)" style="fill: none; stroke-dasharray: 2.96,1.28; stroke-dashoffset: 0; stroke: #b0b0b0; stroke-opacity: 0.5; stroke-width: 0.8"/>
     </g>
     <g id="line2d_10">
      <g>
       <use xlink:href="#mdb6a94bef8" x="299.700739" y="299.518125" style="stroke: #000000; stroke-width: 0.8"/>
      </g>
     </g>
     <g id="text_5">
      <!-- 19.0 -->
      <g transform="translate(288.567926 314.116563) scale(0.1 -0.1)">
       <defs>
        <path id="DejaVuSans-39" d="M 703 97 
L 703 672 
Q 941 559 1184 500 
Q 1428 441 1663 441 
Q 2288 441 2617 861 
Q 2947 1281 2994 2138 
Q 2813 1869 2534 1725 
Q 2256 1581 1919 1581 
Q 1219 1581 811 2004 
Q 403 2428 403 3163 
Q 403 3881 828 4315 
Q 1253 4750 1959 4750 
Q 2769 4750 3195 4129 
Q 3622 3509 3622 2328 
Q 3622 1225 3098 567 
Q 2575 -91 1691 -91 
Q 1453 -91 1209 -44 
Q 966 3 703 97 
z
M 1959 2075 
Q 2384 2075 2632 2365 
Q 2881 2656 2881 3163 
Q 2881 3666 2632 3958 
Q 2384 4250 1959 4250 
Q 1534 4250 1286 3958 
Q 1038 3666 1038 3163 
Q 1038 2656 1286 2365 
Q 1534 2075 1959 2075 
z
" transform="scale(0.015625)"/>
       </defs>
       <use xlink:href="#DejaVuSans-31"/>
       <use xlink:href="#DejaVuSans-39" transform="translate(63.623047 0)"/>
       <use xlink:href="#DejaVuSans-2e" transform="translate(127.246094 0)"/>
       <use xlink:href="#DejaVuSans-30" transform="translate(159.033203 0)"/>
      </g>
     </g>
    </g>
    <g id="xtick_6">
     <g id="line2d_11">
      <path d="M 355.131496 299.518125 
L 355.131496 22.318125 
" clip-path="url(#p15fc64ea3b)" style="fill: none; stroke-dasharray: 2.96,1.28; stroke-dashoffset: 0; stroke: #b0b0b0; stroke-opacity: 0.5; stroke-width: 0.8"/>
     </g>
     <g id="line2d_12">
      <g>
       <use xlink:href="#mdb6a94bef8" x="355.131496" y="299.518125" style="stroke: #000000; stroke-width: 0.8"/>
      </g>
     </g>
     <g id="text_6">
      <!-- 19.5 -->
      <g transform="translate(343.998683 314.116563) scale(0.1 -0.1)">
       <use xlink:href="#DejaVuSans-31"/>
       <use xlink:href="#DejaVuSans-39" transform="translate(63.623047 0)"/>
       <use xlink:href="#DejaVuSans-2e" transform="translate(127.246094 0)"/>
       <use xlink:href="#DejaVuSans-35" transform="translate(159.033203 0)"/>
      </g>
     </g>
    </g>
    <g id="xtick_7">
     <g id="line2d_13">
      <path d="M 410.562253 299.518125 
L 410.562253 22.318125 
" clip-path="url(#p15fc64ea3b)" style="fill: none; stroke-dasharray: 2.96,1.28; stroke-dashoffset: 0; stroke: #b0b0b0; stroke-opacity: 0.5; stroke-width: 0.8"/>
     </g>
     <g id="line2d_14">
      <g>
       <use xlink:href="#mdb6a94bef8" x="410.562253" y="299.518125" style="stroke: #000000; stroke-width: 0.8"/>
      </g>
     </g>
     <g id="text_7">
      <!-- 20.0 -->
      <g transform="translate(399.429441 314.116563) scale(0.1 -0.1)">
       <defs>
        <path id="DejaVuSans-32" d="M 1228 531 
L 3431 531 
L 3431 0 
L 469 0 
L 469 531 
Q 828 903 1448 1529 
Q 2069 2156 2228 2338 
Q 2531 2678 2651 2914 
Q 2772 3150 2772 3378 
Q 2772 3750 2511 3984 
Q 2250 4219 1831 4219 
Q 1534 4219 1204 4116 
Q 875 4013 500 3803 
L 500 4441 
Q 881 4594 1212 4672 
Q 1544 4750 1819 4750 
Q 2544 4750 2975 4387 
Q 3406 4025 3406 3419 
Q 3406 3131 3298 2873 
Q 3191 2616 2906 2266 
Q 2828 2175 2409 1742 
Q 1991 1309 1228 531 
z
" transform="scale(0.015625)"/>
       </defs>
       <use xlink:href="#DejaVuSans-32"/>
       <use xlink:href="#DejaVuSans-30" transform="translate(63.623047 0)"/>
       <use xlink:href="#DejaVuSans-2e" transform="translate(127.246094 0)"/>
       <use xlink:href="#DejaVuSans-30" transform="translate(159.033203 0)"/>
      </g>
     </g>
    </g>
    <g id="text_8">
     <!-- Start weight (g) -->
     <g transform="translate(204.164844 327.794688) scale(0.1 -0.1)">
      <defs>
       <path id="DejaVuSans-53" d="M 3425 4513 
L 3425 3897 
Q 3066 4069 2747 4153 
Q 2428 4238 2131 4238 
Q 1616 4238 1336 4038 
Q 1056 3838 1056 3469 
Q 1056 3159 1242 3001 
Q 1428 2844 1947 2747 
L 2328 2669 
Q 3034 2534 3370 2195 
Q 3706 1856 3706 1288 
Q 3706 609 3251 259 
Q 2797 -91 1919 -91 
Q 1588 -91 1214 -16 
Q 841 59 441 206 
L 441 856 
Q 825 641 1194 531 
Q 1563 422 1919 422 
Q 2459 422 2753 634 
Q 3047 847 3047 1241 
Q 3047 1584 2836 1778 
Q 2625 1972 2144 2069 
L 1759 2144 
Q 1053 2284 737 2584 
Q 422 2884 422 3419 
Q 422 4038 858 4394 
Q 1294 4750 2059 4750 
Q 2388 4750 2728 4690 
Q 3069 4631 3425 4513 
z
" transform="scale(0.015625)"/>
       <path id="DejaVuSans-74" d="M 1172 4494 
L 1172 3500 
L 2356 3500 
L 2356 3053 
L 1172 3053 
L 1172 1153 
Q 1172 725 1289 603 
Q 1406 481 1766 481 
L 2356 481 
L 2356 0 
L 1766 0 
Q 1100 0 847 248 
Q 594 497 594 1153 
L 594 3053 
L 172 3053 
L 172 3500 
L 594 3500 
L 594 4494 
L 1172 4494 
z
" transform="scale(0.015625)"/>
       <path id="DejaVuSans-61" d="M 2194 1759 
Q 1497 1759 1228 1600 
Q 959 1441 959 1056 
Q 959 750 1161 570 
Q 1363 391 1709 391 
Q 2188 391 2477 730 
Q 2766 1069 2766 1631 
L 2766 1759 
L 2194 1759 
z
M 3341 1997 
L 3341 0 
L 2766 0 
L 2766 531 
Q 2569 213 2275 61 
Q 1981 -91 1556 -91 
Q 1019 -91 701 211 
Q 384 513 384 1019 
Q 384 1609 779 1909 
Q 1175 2209 1959 2209 
L 2766 2209 
L 2766 2266 
Q 2766 2663 2505 2880 
Q 2244 3097 1772 3097 
Q 1472 3097 1187 3025 
Q 903 2953 641 2809 
L 641 3341 
Q 956 3463 1253 3523 
Q 1550 3584 1831 3584 
Q 2591 3584 2966 3190 
Q 3341 2797 3341 1997 
z
" transform="scale(0.015625)"/>
       <path id="DejaVuSans-72" d="M 2631 2963 
Q 2534 3019 2420 3045 
Q 2306 3072 2169 3072 
Q 1681 3072 1420 2755 
Q 1159 2438 1159 1844 
L 1159 0 
L 581 0 
L 581 3500 
L 1159 3500 
L 1159 2956 
Q 1341 3275 1631 3429 
Q 1922 3584 2338 3584 
Q 2397 3584 2469 3576 
Q 2541 3569 2628 3553 
L 2631 2963 
z
" transform="scale(0.015625)"/>
       <path id="DejaVuSans-20" transform="scale(0.015625)"/>
       <path id="DejaVuSans-77" d="M 269 3500 
L 844 3500 
L 1563 769 
L 2278 3500 
L 2956 3500 
L 3675 769 
L 4391 3500 
L 4966 3500 
L 4050 0 
L 3372 0 
L 2619 2869 
L 1863 0 
L 1184 0 
L 269 3500 
z
" transform="scale(0.015625)"/>
       <path id="DejaVuSans-65" d="M 3597 1894 
L 3597 1613 
L 953 1613 
Q 991 1019 1311 708 
Q 1631 397 2203 397 
Q 2534 397 2845 478 
Q 3156 559 3463 722 
L 3463 178 
Q 3153 47 2828 -22 
Q 2503 -91 2169 -91 
Q 1331 -91 842 396 
Q 353 884 353 1716 
Q 353 2575 817 3079 
Q 1281 3584 2069 3584 
Q 2775 3584 3186 3129 
Q 3597 2675 3597 1894 
z
M 3022 2063 
Q 3016 2534 2758 2815 
Q 2500 3097 2075 3097 
Q 1594 3097 1305 2825 
Q 1016 2553 972 2059 
L 3022 2063 
z
" transform="scale(0.015625)"/>
       <path id="DejaVuSans-69" d="M 603 3500 
L 1178 3500 
L 1178 0 
L 603 0 
L 603 3500 
z
M 603 4863 
L 1178 4863 
L 1178 4134 
L 603 4134 
L 603 4863 
z
" transform="scale(0.015625)"/>
       <path id="DejaVuSans-67" d="M 2906 1791 
Q 2906 2416 2648 2759 
Q 2391 3103 1925 3103 
Q 1463 3103 1205 2759 
Q 947 2416 947 1791 
Q 947 1169 1205 825 
Q 1463 481 1925 481 
Q 2391 481 2648 825 
Q 2906 1169 2906 1791 
z
M 3481 434 
Q 3481 -459 3084 -895 
Q 2688 -1331 1869 -1331 
Q 1566 -1331 1297 -1286 
Q 1028 -1241 775 -1147 
L 775 -588 
Q 1028 -725 1275 -790 
Q 1522 -856 1778 -856 
Q 2344 -856 2625 -561 
Q 2906 -266 2906 331 
L 2906 616 
Q 2728 306 2450 153 
Q 2172 0 1784 0 
Q 1141 0 747 490 
Q 353 981 353 1791 
Q 353 2603 747 3093 
Q 1141 3584 1784 3584 
Q 2172 3584 2450 3431 
Q 2728 3278 2906 2969 
L 2906 3500 
L 3481 3500 
L 3481 434 
z
" transform="scale(0.015625)"/>
       <path id="DejaVuSans-68" d="M 3513 2113 
L 3513 0 
L 2938 0 
L 2938 2094 
Q 2938 2591 2744 2837 
Q 2550 3084 2163 3084 
Q 1697 3084 1428 2787 
Q 1159 2491 1159 1978 
L 1159 0 
L 581 0 
L 581 4863 
L 1159 4863 
L 1159 2956 
Q 1366 3272 1645 3428 
Q 1925 3584 2291 3584 
Q 2894 3584 3203 3211 
Q 3513 2838 3513 2113 
z
" transform="scale(0.015625)"/>
       <path id="DejaVuSans-28" d="M 1984 4856 
Q 1566 4138 1362 3434 
Q 1159 2731 1159 2009 
Q 1159 1288 1364 580 
Q 1569 -128 1984 -844 
L 1484 -844 
Q 1016 -109 783 600 
Q 550 1309 550 2009 
Q 550 2706 781 3412 
Q 1013 4119 1484 4856 
L 1984 4856 
z
" transform="scale(0.015625)"/>
       <path id="DejaVuSans-29" d="M 513 4856 
L 1013 4856 
Q 1481 4119 1714 3412 
Q 1947 2706 1947 2009 
Q 1947 1309 1714 600 
Q 1481 -109 1013 -844 
L 513 -844 
Q 928 -128 1133 580 
Q 1338 1288 1338 2009 
Q 1338 2731 1133 3434 
Q 928 4138 513 4856 
z
" transform="scale(0.015625)"/>
      </defs>
      <use xlink:href="#DejaVuSans-53"/>
      <use xlink:href="#DejaVuSans-74" transform="translate(63.476562 0)"/>
      <use xlink:href="#DejaVuSans-61" transform="translate(102.685547 0)"/>
      <use xlink:href="#DejaVuSans-72" transform="translate(163.964844 0)"/>
      <use xlink:href="#DejaVuSans-74" transform="translate(205.078125 0)"/>
      <use xlink:href="#DejaVuSans-20" transform="translate(244.287109 0)"/>
      <use xlink:href="#DejaVuSans-77" transform="translate(276.074219 0)"/>
      <use xlink:href="#DejaVuSans-65" transform="translate(357.861328 0)"/>
      <use xlink:href="#DejaVuSans-69" transform="translate(419.384766 0)"/>
      <use xlink:href="#DejaVuSans-67" transform="translate(447.167969 0)"/>
      <use xlink:href="#DejaVuSans-68" transform="translate(510.644531 0)"/>
      <use xlink:href="#DejaVuSans-74" transform="translate(574.023438 0)"/>
      <use xlink:href="#DejaVuSans-20" transform="translate(613.232422 0)"/>
      <use xlink:href="#DejaVuSans-28" transform="translate(645.019531 0)"/>
      <use xlink:href="#DejaVuSans-67" transform="translate(684.033203 0)"/>
      <use xlink:href="#DejaVuSans-29" transform="translate(747.509766 0)"/>
     </g>
    </g>
   </g>
   <g id="matplotlib.axis_2">
    <g id="ytick_1">
     <g id="line2d_15">
      <path d="M 34.240625 244.785368 
L 452.740625 244.785368 
" clip-path="url(#p15fc64ea3b)" style="fill: none; stroke-dasharray: 2.96,1.28; stroke-dashoffset: 0; stroke: #b0b0b0; stroke-opacity: 0.5; stroke-width: 0.8"/>
     </g>
     <g id="line2d_16">
      <defs>
       <path id="m2154025876" d="M 0 0 
L -3.5 0 
" style="stroke: #000000; stroke-width: 0.8"/>
      </defs>
      <g>
       <use xlink:href="#m2154025876" x="34.240625" y="244.785368" style="stroke: #000000; stroke-width: 0.8"/>
      </g>
     </g>
     <g id="text_9">
      <!-- 0 -->
      <g transform="translate(20.878125 248.584587) scale(0.1 -0.1)">
       <use xlink:href="#DejaVuSans-30"/>
      </g>
     </g>
    </g>
    <g id="ytick_2">
     <g id="line2d_17">
      <path d="M 34.240625 184.490445 
L 452.740625 184.490445 
" clip-path="url(#p15fc64ea3b)" style="fill: none; stroke-dasharray: 2.96,1.28; stroke-dashoffset: 0; stroke: #b0b0b0; stroke-opacity: 0.5; stroke-width: 0.8"/>
     </g>
     <g id="line2d_18">
      <g>
       <use xlink:href="#m2154025876" x="34.240625" y="184.490445" style="stroke: #000000; stroke-width: 0.8"/>
      </g>
     </g>
     <g id="text_10">
      <!-- 2 -->
      <g transform="translate(20.878125 188.289664) scale(0.1 -0.1)">
       <use xlink:href="#DejaVuSans-32"/>
      </g>
     </g>
    </g>
    <g id="ytick_3">
     <g id="line2d_19">
      <path d="M 34.240625 124.195521 
L 452.740625 124.195521 
" clip-path="url(#p15fc64ea3b)" style="fill: none; stroke-dasharray: 2.96,1.28; stroke-dashoffset: 0; stroke: #b0b0b0; stroke-opacity: 0.5; stroke-width: 0.8"/>
     </g>
     <g id="line2d_20">
      <g>
       <use xlink:href="#m2154025876" x="34.240625" y="124.195521" style="stroke: #000000; stroke-width: 0.8"/>
      </g>
     </g>
     <g id="text_11">
      <!-- 4 -->
      <g transform="translate(20.878125 127.99474) scale(0.1 -0.1)">
       <defs>
        <path id="DejaVuSans-34" d="M 2419 4116 
L 825 1625 
L 2419 1625 
L 2419 4116 
z
M 2253 4666 
L 3047 4666 
L 3047 1625 
L 3713 1625 
L 3713 1100 
L 3047 1100 
L 3047 0 
L 2419 0 
L 2419 1100 
L 313 1100 
L 313 1709 
L 2253 4666 
z
" transform="scale(0.015625)"/>
       </defs>
       <use xlink:href="#DejaVuSans-34"/>
      </g>
     </g>
    </g>
    <g id="ytick_4">
     <g id="line2d_21">
      <path d="M 34.240625 63.900598 
L 452.740625 63.900598 
" clip-path="url(#p15fc64ea3b)" style="fill: none; stroke-dasharray: 2.96,1.28; stroke-dashoffset: 0; stroke: #b0b0b0; stroke-opacity: 0.5; stroke-width: 0.8"/>
     </g>
     <g id="line2d_22">
      <g>
       <use xlink:href="#m2154025876" x="34.240625" y="63.900598" style="stroke: #000000; stroke-width: 0.8"/>
      </g>
     </g>
     <g id="text_12">
      <!-- 6 -->
      <g transform="translate(20.878125 67.699817) scale(0.1 -0.1)">
       <defs>
        <path id="DejaVuSans-36" d="M 2113 2584 
Q 1688 2584 1439 2293 
Q 1191 2003 1191 1497 
Q 1191 994 1439 701 
Q 1688 409 2113 409 
Q 2538 409 2786 701 
Q 3034 994 3034 1497 
Q 3034 2003 2786 2293 
Q 2538 2584 2113 2584 
z
M 3366 4563 
L 3366 3988 
Q 3128 4100 2886 4159 
Q 2644 4219 2406 4219 
Q 1781 4219 1451 3797 
Q 1122 3375 1075 2522 
Q 1259 2794 1537 2939 
Q 1816 3084 2150 3084 
Q 2853 3084 3261 2657 
Q 3669 2231 3669 1497 
Q 3669 778 3244 343 
Q 2819 -91 2113 -91 
Q 1303 -91 875 529 
Q 447 1150 447 2328 
Q 447 3434 972 4092 
Q 1497 4750 2381 4750 
Q 2619 4750 2861 4703 
Q 3103 4656 3366 4563 
z
" transform="scale(0.015625)"/>
       </defs>
       <use xlink:href="#DejaVuSans-36"/>
      </g>
     </g>
    </g>
    <g id="text_13">
     <!-- Overnight loss (% of start) -->
     <g transform="translate(14.798438 226.849375) rotate(-90) scale(0.1 -0.1)">
      <defs>
       <path id="DejaVuSans-4f" d="M 2522 4238 
Q 1834 4238 1429 3725 
Q 1025 3213 1025 2328 
Q 1025 1447 1429 934 
Q 1834 422 2522 422 
Q 3209 422 3611 934 
Q 4013 1447 4013 2328 
Q 4013 3213 3611 3725 
Q 3209 4238 2522 4238 
z
M 2522 4750 
Q 3503 4750 4090 4092 
Q 4678 3434 4678 2328 
Q 4678 1225 4090 567 
Q 3503 -91 2522 -91 
Q 1538 -91 948 565 
Q 359 1222 359 2328 
Q 359 3434 948 4092 
Q 1538 4750 2522 4750 
z
" transform="scale(0.015625)"/>
       <path id="DejaVuSans-76" d="M 191 3500 
L 800 3500 
L 1894 563 
L 2988 3500 
L 3597 3500 
L 2284 0 
L 1503 0 
L 191 3500 
z
" transform="scale(0.015625)"/>
       <path id="DejaVuSans-6e" d="M 3513 2113 
L 3513 0 
L 2938 0 
L 2938 2094 
Q 2938 2591 2744 2837 
Q 2550 3084 2163 3084 
Q 1697 3084 1428 2787 
Q 1159 2491 1159 1978 
L 1159 0 
L 581 0 
L 581 3500 
L 1159 3500 
L 1159 2956 
Q 1366 3272 1645 3428 
Q 1925 3584 2291 3584 
Q 2894 3584 3203 3211 
Q 3513 2838 3513 2113 
z
" transform="scale(0.015625)"/>
       <path id="DejaVuSans-6c" d="M 603 4863 
L 1178 4863 
L 1178 0 
L 603 0 
L 603 4863 
z
" transform="scale(0.015625)"/>
       <path id="DejaVuSans-6f" d="M 1959 3097 
Q 1497 3097 1228 2736 
Q 959 2375 959 1747 
Q 959 1119 1226 758 
Q 1494 397 1959 397 
Q 2419 397 2687 759 
Q 2956 1122 2956 1747 
Q 2956 2369 2687 2733 
Q 2419 3097 1959 3097 
z
M 1959 3584 
Q 2709 3584 3137 3096 
Q 3566 2609 3566 1747 
Q 3566 888 3137 398 
Q 2709 -91 1959 -91 
Q 1206 -91 779 398 
Q 353 888 353 1747 
Q 353 2609 779 3096 
Q 1206 3584 1959 3584 
z
" transform="scale(0.015625)"/>
       <path id="DejaVuSans-73" d="M 2834 3397 
L 2834 2853 
Q 2591 2978 2328 3040 
Q 2066 3103 1784 3103 
Q 1356 3103 1142 2972 
Q 928 2841 928 2578 
Q 928 2378 1081 2264 
Q 1234 2150 1697 2047 
L 1894 2003 
Q 2506 1872 2764 1633 
Q 3022 1394 3022 966 
Q 3022 478 2636 193 
Q 2250 -91 1575 -91 
Q 1294 -91 989 -36 
Q 684 19 347 128 
L 347 722 
Q 666 556 975 473 
Q 1284 391 1588 391 
Q 1994 391 2212 530 
Q 2431 669 2431 922 
Q 2431 1156 2273 1281 
Q 2116 1406 1581 1522 
L 1381 1569 
Q 847 1681 609 1914 
Q 372 2147 372 2553 
Q 372 3047 722 3315 
Q 1072 3584 1716 3584 
Q 2034 3584 2315 3537 
Q 2597 3491 2834 3397 
z
" transform="scale(0.015625)"/>
       <path id="DejaVuSans-25" d="M 4653 2053 
Q 4381 2053 4226 1822 
Q 4072 1591 4072 1178 
Q 4072 772 4226 539 
Q 4381 306 4653 306 
Q 4919 306 5073 539 
Q 5228 772 5228 1178 
Q 5228 1588 5073 1820 
Q 4919 2053 4653 2053 
z
M 4653 2450 
Q 5147 2450 5437 2106 
Q 5728 1763 5728 1178 
Q 5728 594 5436 251 
Q 5144 -91 4653 -91 
Q 4153 -91 3862 251 
Q 3572 594 3572 1178 
Q 3572 1766 3864 2108 
Q 4156 2450 4653 2450 
z
M 1428 4353 
Q 1159 4353 1004 4120 
Q 850 3888 850 3481 
Q 850 3069 1003 2837 
Q 1156 2606 1428 2606 
Q 1700 2606 1854 2837 
Q 2009 3069 2009 3481 
Q 2009 3884 1853 4118 
Q 1697 4353 1428 4353 
z
M 4250 4750 
L 4750 4750 
L 1831 -91 
L 1331 -91 
L 4250 4750 
z
M 1428 4750 
Q 1922 4750 2215 4408 
Q 2509 4066 2509 3481 
Q 2509 2891 2217 2550 
Q 1925 2209 1428 2209 
Q 931 2209 642 2551 
Q 353 2894 353 3481 
Q 353 4063 643 4406 
Q 934 4750 1428 4750 
z
" transform="scale(0.015625)"/>
       <path id="DejaVuSans-66" d="M 2375 4863 
L 2375 4384 
L 1825 4384 
Q 1516 4384 1395 4259 
Q 1275 4134 1275 3809 
L 1275 3500 
L 2222 3500 
L 2222 3053 
L 1275 3053 
L 1275 0 
L 697 0 
L 697 3053 
L 147 3053 
L 147 3500 
L 697 3500 
L 697 3744 
Q 697 4328 969 4595 
Q 1241 4863 1831 4863 
L 2375 4863 
z
" transform="scale(0.015625)"/>
      </defs>
      <use xlink:href="#DejaVuSans-4f"/>
      <use xlink:href="#DejaVuSans-76" transform="translate(78.710938 0)"/>
      <use xlink:href="#DejaVuSans-65" transform="translate(137.890625 0)"/>
      <use xlink:href="#DejaVuSans-72" transform="translate(199.414062 0)"/>
      <use xlink:href="#DejaVuSans-6e" transform="translate(238.777344 0)"/>
      <use xlink:href="#DejaVuSans-69" transform="translate(302.15625 0)"/>
      <use xlink:href="#DejaVuSans-67" transform="translate(329.939453 0)"/>
      <use xlink:href="#DejaVuSans-68" transform="translate(393.416016 0)"/>
      <use xlink:href="#DejaVuSans-74" transform="translate(456.794922 0)"/>
      <use xlink:href="#DejaVuSans-20" transform="translate(496.003906 0)"/>
      <use xlink:href="#DejaVuSans-6c" transform="translate(527.791016 0)"/>
      <use xlink:href="#DejaVuSans-6f" transform="translate(555.574219 0)"/>
      <use xlink:href="#DejaVuSans-73" transform="translate(616.755859 0)"/>
      <use xlink:href="#DejaVuSans-73" transform="translate(668.855469 0)"/>
      <use xlink:href="#DejaVuSans-20" transform="translate(720.955078 0)"/>
      <use xlink:href="#DejaVuSans-28" transform="translate(752.742188 0)"/>
      <use xlink:href="#DejaVuSans-25" transform="translate(791.755859 0)"/>
      <use xlink:href="#DejaVuSans-20" transform="translate(886.775391 0)"/>
      <use xlink:href="#DejaVuSans-6f" transform="translate(918.5625 0)"/>
      <use xlink:href="#DejaVuSans-66" transform="translate(979.744141 0)"/>
      <use xlink:href="#DejaVuSans-20" transform="translate(1014.949219 0)"/>
      <use xlink:href="#DejaVuSans-73" transform="translate(1046.736328 0)"/>
      <use xlink:href="#DejaVuSans-74" transform="translate(1098.835938 0)"/>
      <use xlink:href="#DejaVuSans-61" transform="translate(1138.044922 0)"/>
      <use xlink:href="#DejaVuSans-72" transform="translate(1199.324219 0)"/>
      <use xlink:href="#DejaVuSans-74" transform="translate(1240.4375 0)"/>
      <use xlink:href="#DejaVuSans-29" transform="translate(1279.646484 0)"/>
     </g>
    </g>
   </g>
   <g id="line2d_23">
    <path d="M 299.176364 137.340629 
L 300.535369 137.047782 
L 301.894375 136.754935 
L 303.25338 136.462088 
L 304.612385 136.169241 
L 305.971391 135.876394 
L 307.330396 135.583547 
L 308.689401 135.2907 
L 310.048407 134.997853 
L 311.407412 134.705006 
L 312.766418 134.412159 
L 314.125423 134.119313 
L 315.484428 133.826466 
L 316.843434 133.533619 
L 318.202439 133.240772 
L 319.561445 132.947925 
L 320.92045 132.655078 
L 322.279455 132.362231 
L 323.638461 132.069384 
L 324.997466 131.776537 
L 326.356472 131.48369 
L 327.715477 131.190843 
L 329.074482 130.897997 
L 330.433488 130.60515 
L 331.792493 130.312303 
L 333.151499 130.019456 
L 334.510504 129.726609 
L 335.869509 129.433762 
L 337.228515 129.140915 
L 338.58752 128.848068 
L 339.946526 128.555221 
L 341.305531 128.262374 
L 342.664536 127.969527 
L 344.023542 127.67668 
L 345.382547 127.383834 
L 346.741553 127.090987 
L 348.100558 126.79814 
L 349.459563 126.505293 
L 350.818569 126.212446 
L 352.177574 125.919599 
L 353.536579 125.626752 
L 354.895585 125.333905 
L 356.25459 125.041058 
L 357.613596 124.748211 
L 358.972601 124.455364 
L 360.331606 124.162518 
L 361.690612 123.869671 
L 363.049617 123.576824 
L 364.408623 123.283977 
L 365.767628 122.99113 
L 367.126633 122.698283 
L 368.485639 122.405436 
L 369.844644 122.112589 
L 371.20365 121.819742 
L 372.562655 121.526895 
L 373.92166 121.234048 
L 375.280666 120.941201 
L 376.639671 120.648355 
L 377.998677 120.355508 
L 379.357682 120.062661 
L 380.716687 119.769814 
L 382.075693 119.476967 
L 383.434698 119.18412 
L 384.793704 118.891273 
L 386.152709 118.598426 
L 387.511714 118.305579 
L 388.87072 118.012732 
L 390.229725 117.719885 
L 391.588731 117.427039 
L 392.947736 117.134192 
L 394.306741 116.841345 
L 395.665747 116.548498 
L 397.024752 116.255651 
L 398.383757 115.962804 
L 399.742763 115.669957 
L 401.101768 115.37711 
L 402.460774 115.084263 
L 403.819779 114.791416 
L 405.178784 114.498569 
L 406.53779 114.205722 
L 407.896795 113.912876 
L 409.255801 113.620029 
L 410.614806 113.327182 
L 411.973811 113.034335 
L 413.332817 112.741488 
L 414.691822 112.448641 
L 416.050828 112.155794 
L 417.409833 111.862947 
L 418.768838 111.5701 
L 420.127844 111.277253 
L 421.486849 110.984406 
L 422.845855 110.69156 
L 424.20486 110.398713 
L 425.563865 110.105866 
L 426.922871 109.813019 
L 428.281876 109.520172 
L 429.640882 109.227325 
L 430.999887 108.934478 
L 432.358892 108.641631 
L 433.717898 108.348784 
" clip-path="url(#p15fc64ea3b)" style="fill: none; stroke: #1f77b4; stroke-linecap: square"/>
   </g>
   <g id="line2d_24">
    <path d="M 53.263352 165.709661 
L 54.191711 164.604486 
L 55.12007 163.499311 
L 56.048429 162.394137 
L 56.976787 161.288962 
L 57.905146 160.183787 
L 58.833505 159.078612 
L 59.761864 157.973438 
L 60.690223 156.868263 
L 61.618581 155.763088 
L 62.54694 154.657914 
L 63.475299 153.552739 
L 64.403658 152.447564 
L 65.332017 151.34239 
L 66.260375 150.237215 
L 67.188734 149.13204 
L 68.117093 148.026866 
L 69.045452 146.921691 
L 69.973811 145.816516 
L 70.90217 144.711342 
L 71.830528 143.606167 
L 72.758887 142.500992 
L 73.687246 141.395818 
L 74.615605 140.290643 
L 75.543964 139.185468 
L 76.472322 138.080294 
L 77.400681 136.975119 
L 78.32904 135.869944 
L 79.257399 134.76477 
L 80.185758 133.659595 
L 81.114116 132.55442 
L 82.042475 131.449246 
L 82.970834 130.344071 
L 83.899193 129.238896 
L 84.827552 128.133722 
L 85.75591 127.028547 
L 86.684269 125.923372 
L 87.612628 124.818198 
L 88.540987 123.713023 
L 89.469346 122.607848 
L 90.397704 121.502674 
L 91.326063 120.397499 
L 92.254422 119.292324 
L 93.182781 118.18715 
L 94.11114 117.081975 
L 95.039498 115.9768 
L 95.967857 114.871626 
L 96.896216 113.766451 
L 97.824575 112.661276 
L 98.752934 111.556102 
L 99.681292 110.450927 
L 100.609651 109.345752 
L 101.53801 108.240578 
L 102.466369 107.135403 
L 103.394728 106.030228 
L 104.323086 104.925054 
L 105.251445 103.819879 
L 106.179804 102.714704 
L 107.108163 101.609529 
L 108.036522 100.504355 
L 108.96488 99.39918 
L 109.893239 98.294005 
L 110.821598 97.188831 
L 111.749957 96.083656 
L 112.678316 94.978481 
L 113.606674 93.873307 
L 114.535033 92.768132 
L 115.463392 91.662957 
L 116.391751 90.557783 
L 117.32011 89.452608 
L 118.248468 88.347433 
L 119.176827 87.242259 
L 120.105186 86.137084 
L 121.033545 85.031909 
L 121.961904 83.926735 
L 122.890262 82.82156 
L 123.818621 81.716385 
L 124.74698 80.611211 
L 125.675339 79.506036 
L 126.603698 78.400861 
L 127.532056 77.295687 
L 128.460415 76.190512 
L 129.388774 75.085337 
L 130.317133 73.980163 
L 131.245492 72.874988 
L 132.17385 71.769813 
L 133.102209 70.664639 
L 134.030568 69.559464 
L 134.958927 68.454289 
L 135.887286 67.349115 
L 136.815644 66.24394 
L 137.744003 65.138765 
L 138.672362 64.033591 
L 139.600721 62.928416 
L 140.52908 61.823241 
L 141.457438 60.718067 
L 142.385797 59.612892 
L 143.314156 58.507717 
L 144.242515 57.402543 
L 145.170874 56.297368 
" clip-path="url(#p15fc64ea3b)" style="fill: none; stroke: #d62728; stroke-linecap: square"/>
   </g>
   <g id="line2d_25">
    <path d="M 154.902297 286.916937 
L 155.744834 285.012331 
L 156.58737 283.107725 
L 157.429906 281.203119 
L 158.272443 279.298512 
L 159.114979 277.393906 
L 159.957515 275.4893 
L 160.800052 273.584694 
L 161.642588 271.680088 
L 162.485124 269.775482 
L 163.327661 267.870876 
L 164.170197 265.96627 
L 165.012733 264.061663 
L 165.855269 262.157057 
L 166.697806 260.252451 
L 167.540342 258.347845 
L 168.382878 256.443239 
L 169.225415 254.538633 
L 170.067951 252.634027 
L 170.910487 250.72942 
L 171.753024 248.824814 
L 172.59556 246.920208 
L 173.438096 245.015602 
L 174.280633 243.110996 
L 175.123169 241.20639 
L 175.965705 239.301784 
L 176.808241 237.397178 
L 177.650778 235.492571 
L 178.493314 233.587965 
L 179.33585 231.683359 
L 180.178387 229.778753 
L 181.020923 227.874147 
L 181.863459 225.969541 
L 182.705996 224.064935 
L 183.548532 222.160328 
L 184.391068 220.255722 
L 185.233605 218.351116 
L 186.076141 216.44651 
L 186.918677 214.541904 
L 187.761214 212.637298 
L 188.60375 210.732692 
L 189.446286 208.828086 
L 190.288822 206.923479 
L 191.131359 205.018873 
L 191.973895 203.114267 
L 192.816431 201.209661 
L 193.658968 199.305055 
L 194.501504 197.400449 
L 195.34404 195.495843 
L 196.186577 193.591237 
L 197.029113 191.68663 
L 197.871649 189.782024 
L 198.714186 187.877418 
L 199.556722 185.972812 
L 200.399258 184.068206 
L 201.241795 182.1636 
L 202.084331 180.258994 
L 202.926867 178.354387 
L 203.769403 176.449781 
L 204.61194 174.545175 
L 205.454476 172.640569 
L 206.297012 170.735963 
L 207.139549 168.831357 
L 207.982085 166.926751 
L 208.824621 165.022145 
L 209.667158 163.117538 
L 210.509694 161.212932 
L 211.35223 159.308326 
L 212.194767 157.40372 
L 213.037303 155.499114 
L 213.879839 153.594508 
L 214.722376 151.689902 
L 215.564912 149.785295 
L 216.407448 147.880689 
L 217.249984 145.976083 
L 218.092521 144.071477 
L 218.935057 142.166871 
L 219.777593 140.262265 
L 220.62013 138.357659 
L 221.462666 136.453053 
L 222.305202 134.548446 
L 223.147739 132.64384 
L 223.990275 130.739234 
L 224.832811 128.834628 
L 225.675348 126.930022 
L 226.517884 125.025416 
L 227.36042 123.12081 
L 228.202957 121.216203 
L 229.045493 119.311597 
L 229.888029 117.406991 
L 230.730565 115.502385 
L 231.573102 113.597779 
L 232.415638 111.693173 
L 233.258174 109.788567 
L 234.100711 107.883961 
L 234.943247 105.979354 
L 235.785783 104.074748 
L 236.62832 102.170142 
L 237.470856 100.265536 
L 238.313392 98.36093 
" clip-path="url(#p15fc64ea3b)" style="fill: none; stroke: #e377c2; stroke-linecap: square"/>
   </g>
   <g id="line2d_26">
    <path d="M 336.501218 109.422109 
L 336.657959 109.613249 
L 336.814699 109.804389 
L 336.971439 109.995529 
L 337.128179 110.186669 
L 337.28492 110.377809 
L 337.44166 110.568949 
L 337.5984 110.760089 
L 337.755141 110.951229 
L 337.911881 111.142369 
L 338.068621 111.333509 
L 338.225361 111.524649 
L 338.382102 111.715789 
L 338.538842 111.906929 
L 338.695582 112.098069 
L 338.852322 112.289209 
L 339.009063 112.480349 
L 339.165803 112.671489 
L 339.322543 112.862629 
L 339.479283 113.053769 
L 339.636024 113.244909 
L 339.792764 113.436049 
L 339.949504 113.627189 
L 340.106245 113.818329 
L 340.262985 114.009468 
L 340.419725 114.200608 
L 340.576465 114.391748 
L 340.733206 114.582888 
L 340.889946 114.774028 
L 341.046686 114.965168 
L 341.203426 115.156308 
L 341.360167 115.347448 
L 341.516907 115.538588 
L 341.673647 115.729728 
L 341.830387 115.920868 
L 341.987128 116.112008 
L 342.143868 116.303148 
L 342.300608 116.494288 
L 342.457348 116.685428 
L 342.614089 116.876568 
L 342.770829 117.067708 
L 342.927569 117.258848 
L 343.08431 117.449988 
L 343.24105 117.641128 
L 343.39779 117.832268 
L 343.55453 118.023408 
L 343.711271 118.214548 
L 343.868011 118.405688 
L 344.024751 118.596828 
L 344.181491 118.787968 
L 344.338232 118.979108 
L 344.494972 119.170248 
L 344.651712 119.361388 
L 344.808452 119.552528 
L 344.965193 119.743668 
L 345.121933 119.934808 
L 345.278673 120.125948 
L 345.435414 120.317088 
L 345.592154 120.508228 
L 345.748894 120.699368 
L 345.905634 120.890508 
L 346.062375 121.081648 
L 346.219115 121.272788 
L 346.375855 121.463928 
L 346.532595 121.655068 
L 346.689336 121.846208 
L 346.846076 122.037348 
L 347.002816 122.228488 
L 347.159556 122.419628 
L 347.316297 122.610768 
L 347.473037 122.801908 
L 347.629777 122.993048 
L 347.786517 123.184188 
L 347.943258 123.375328 
L 348.099998 123.566468 
L 348.256738 123.757608 
L 348.413479 123.948748 
L 348.570219 124.139888 
L 348.726959 124.331028 
L 348.883699 124.522168 
L 349.04044 124.713308 
L 349.19718 124.904448 
L 349.35392 125.095588 
L 349.51066 125.286728 
L 349.667401 125.477868 
L 349.824141 125.669008 
L 349.980881 125.860148 
L 350.137621 126.051288 
L 350.294362 126.242428 
L 350.451102 126.433568 
L 350.607842 126.624708 
L 350.764583 126.815848 
L 350.921323 127.006988 
L 351.078063 127.198128 
L 351.234803 127.389268 
L 351.391544 127.580408 
L 351.548284 127.771548 
L 351.705024 127.962688 
L 351.861764 128.153828 
L 352.018505 128.344968 
" clip-path="url(#p15fc64ea3b)" style="fill: none; stroke: #17becf; stroke-linecap: square"/>
   </g>
   <g id="line2d_27">
    <path d="M 53.263352 156.649118 
L 433.717898 115.606714 
L 433.717898 115.606714 
" clip-path="url(#p15fc64ea3b)" style="fill: none; stroke: #000000; stroke-width: 2.5; stroke-linecap: square"/>
   </g>
   <g id="patch_3">
    <path d="M 34.240625 299.518125 
L 34.240625 22.318125 
" style="fill: none; stroke: #000000; stroke-width: 0.8; stroke-linejoin: miter; stroke-linecap: square"/>
   </g>
   <g id="patch_4">
    <path d="M 34.240625 299.518125 
L 452.740625 299.518125 
" style="fill: none; stroke: #000000; stroke-width: 0.8; stroke-linejoin: miter; stroke-linecap: square"/>
   </g>
   <g id="text_14">
    <!-- Panel B — % Overnight Loss vs Start Weight -->
    <g transform="translate(111.074375 16.318125) scale(0.12 -0.12)">
     <defs>
      <path id="DejaVuSans-50" d="M 1259 4147 
L 1259 2394 
L 2053 2394 
Q 2494 2394 2734 2622 
Q 2975 2850 2975 3272 
Q 2975 3691 2734 3919 
Q 2494 4147 2053 4147 
L 1259 4147 
z
M 628 4666 
L 2053 4666 
Q 2838 4666 3239 4311 
Q 3641 3956 3641 3272 
Q 3641 2581 3239 2228 
Q 2838 1875 2053 1875 
L 1259 1875 
L 1259 0 
L 628 0 
L 628 4666 
z
" transform="scale(0.015625)"/>
      <path id="DejaVuSans-42" d="M 1259 2228 
L 1259 519 
L 2272 519 
Q 2781 519 3026 730 
Q 3272 941 3272 1375 
Q 3272 1813 3026 2020 
Q 2781 2228 2272 2228 
L 1259 2228 
z
M 1259 4147 
L 1259 2741 
L 2194 2741 
Q 2656 2741 2882 2914 
Q 3109 3088 3109 3444 
Q 3109 3797 2882 3972 
Q 2656 4147 2194 4147 
L 1259 4147 
z
M 628 4666 
L 2241 4666 
Q 2963 4666 3353 4366 
Q 3744 4066 3744 3513 
Q 3744 3084 3544 2831 
Q 3344 2578 2956 2516 
Q 3422 2416 3680 2098 
Q 3938 1781 3938 1306 
Q 3938 681 3513 340 
Q 3088 0 2303 0 
L 628 0 
L 628 4666 
z
" transform="scale(0.015625)"/>
      <path id="DejaVuSans-2014" d="M 313 1978 
L 6088 1978 
L 6088 1528 
L 313 1528 
L 313 1978 
z
" transform="scale(0.015625)"/>
      <path id="DejaVuSans-4c" d="M 628 4666 
L 1259 4666 
L 1259 531 
L 3531 531 
L 3531 0 
L 628 0 
L 628 4666 
z
" transform="scale(0.015625)"/>
      <path id="DejaVuSans-57" d="M 213 4666 
L 850 4666 
L 1831 722 
L 2809 4666 
L 3519 4666 
L 4500 722 
L 5478 4666 
L 6119 4666 
L 4947 0 
L 4153 0 
L 3169 4050 
L 2175 0 
L 1381 0 
L 213 4666 
z
" transform="scale(0.015625)"/>
     </defs>
     <use xlink:href="#DejaVuSans-50"/>
     <use xlink:href="#DejaVuSans-61" transform="translate(55.802734 0)"/>
     <use xlink:href="#DejaVuSans-6e" transform="translate(117.082031 0)"/>
     <use xlink:href="#DejaVuSans-65" transform="translate(180.460938 0)"/>
     <use xlink:href="#DejaVuSans-6c" transform="translate(241.984375 0)"/>
     <use xlink:href="#DejaVuSans-20" transform="translate(269.767578 0)"/>
     <use xlink:href="#DejaVuSans-42" transform="translate(301.554688 0)"/>
     <use xlink:href="#DejaVuSans-20" transform="translate(370.158203 0)"/>
     <use xlink:href="#DejaVuSans-2014" transform="translate(401.945312 0)"/>
     <use xlink:href="#DejaVuSans-20" transform="translate(501.945312 0)"/>
     <use xlink:href="#DejaVuSans-25" transform="translate(533.732422 0)"/>
     <use xlink:href="#DejaVuSans-20" transform="translate(628.751953 0)"/>
     <use xlink:href="#DejaVuSans-4f" transform="translate(660.539062 0)"/>
     <use xlink:href="#DejaVuSans-76" transform="translate(739.25 0)"/>
     <use xlink:href="#DejaVuSans-65" transform="translate(798.429688 0)"/>
     <use xlink:href="#DejaVuSans-72" transform="translate(859.953125 0)"/>
     <use xlink:href="#DejaVuSans-6e" transform="translate(899.316406 0)"/>
     <use xlink:href="#DejaVuSans-69" transform="translate(962.695312 0)"/>
     <use xlink:href="#DejaVuSans-67" transform="translate(990.478516 0)"/>
     <use xlink:href="#DejaVuSans-68" transform="translate(1053.955078 0)"/>
     <use xlink:href="#DejaVuSans-74" transform="translate(1117.333984 0)"/>
     <use xlink:href="#DejaVuSans-20" transform="translate(1156.542969 0)"/>
     <use xlink:href="#DejaVuSans-4c" transform="translate(1188.330078 0)"/>
     <use xlink:href="#DejaVuSans-6f" transform="translate(1242.292969 0)"/>
     <use xlink:href="#DejaVuSans-73" transform="translate(1303.474609 0)"/>
     <use xlink:href="#DejaVuSans-73" transform="translate(1355.574219 0)"/>
     <use xlink:href="#DejaVuSans-20" transform="translate(1407.673828 0)"/>
     <use xlink:href="#DejaVuSans-76" transform="translate(1439.460938 0)"/>
     <use xlink:href="#DejaVuSans-73" transform="translate(1498.640625 0)"/>
     <use xlink:href="#DejaVuSans-20" transform="translate(1550.740234 0)"/>
     <use xlink:href="#DejaVuSans-53" transform="translate(1582.527344 0)"/>
     <use xlink:href="#DejaVuSans-74" transform="translate(1646.003906 0)"/>
     <use xlink:href="#DejaVuSans-61" transform="translate(1685.212891 0)"/>
     <use xlink:href="#DejaVuSans-72" transform="translate(1746.492188 0)"/>
     <use xlink:href="#DejaVuSans-74" transform="translate(1787.605469 0)"/>
     <use xlink:href="#DejaVuSans-20" transform="translate(1826.814453 0)"/>
     <use xlink:href="#DejaVuSans-57" transform="translate(1858.601562 0)"/>
     <use xlink:href="#DejaVuSans-65" transform="translate(1951.603516 0)"/>
     <use xlink:href="#DejaVuSans-69" transform="translate(2013.126953 0)"/>
     <use xlink:href="#DejaVuSans-67" transform="translate(2040.910156 0)"/>
     <use xlink:href="#DejaVuSans-68" transform="translate(2104.386719 0)"/>
     <use xlink:href="#DejaVuSans-74" transform="translate(2167.765625 0)"/>
    </g>
   </g>
   <g id="legend_1">
    <g id="patch_5">
     <path d="M 44.33125 75.854062 
L 445.740625 75.854062 
Q 447.740625 75.854062 447.740625 73.854062 
L 447.740625 29.318125 
Q 447.740625 27.318125 445.740625 27.318125 
L 44.33125 27.318125 
Q 42.33125 27.318125 42.33125 29.318125 
L 42.33125 73.854062 
Q 42.33125 75.854062 44.33125 75.854062 
z
" style="fill: #ffffff; opacity: 0.8; stroke: #cccccc; stroke-linejoin: miter"/>
    </g>
    <g id="text_15">
     <!-- bird -->
     <g transform="translate(235.330469 38.916562) scale(0.1 -0.1)">
      <defs>
       <path id="DejaVuSans-62" d="M 3116 1747 
Q 3116 2381 2855 2742 
Q 2594 3103 2138 3103 
Q 1681 3103 1420 2742 
Q 1159 2381 1159 1747 
Q 1159 1113 1420 752 
Q 1681 391 2138 391 
Q 2594 391 2855 752 
Q 3116 1113 3116 1747 
z
M 1159 2969 
Q 1341 3281 1617 3432 
Q 1894 3584 2278 3584 
Q 2916 3584 3314 3078 
Q 3713 2572 3713 1747 
Q 3713 922 3314 415 
Q 2916 -91 2278 -91 
Q 1894 -91 1617 61 
Q 1341 213 1159 525 
L 1159 0 
L 581 0 
L 581 4863 
L 1159 4863 
L 1159 2969 
z
" transform="scale(0.015625)"/>
       <path id="DejaVuSans-64" d="M 2906 2969 
L 2906 4863 
L 3481 4863 
L 3481 0 
L 2906 0 
L 2906 525 
Q 2725 213 2448 61 
Q 2172 -91 1784 -91 
Q 1150 -91 751 415 
Q 353 922 353 1747 
Q 353 2572 751 3078 
Q 1150 3584 1784 3584 
Q 2172 3584 2448 3432 
Q 2725 3281 2906 2969 
z
M 947 1747 
Q 947 1113 1208 752 
Q 1469 391 1925 391 
Q 2381 391 2643 752 
Q 2906 1113 2906 1747 
Q 2906 2381 2643 2742 
Q 2381 3103 1925 3103 
Q 1469 3103 1208 2742 
Q 947 2381 947 1747 
z
" transform="scale(0.015625)"/>
      </defs>
      <use xlink:href="#DejaVuSans-62"/>
      <use xlink:href="#DejaVuSans-69" transform="translate(63.476562 0)"/>
      <use xlink:href="#DejaVuSans-72" transform="translate(91.259766 0)"/>
      <use xlink:href="#DejaVuSans-64" transform="translate(130.623047 0)"/>
     </g>
    </g>
    <g id="PathCollection_5">
     <g>
      <use xlink:href="#md74000e3b5" x="56.33125" y="52.47125" style="fill: #1f77b4; fill-opacity: 0.7; stroke: #1f77b4; stroke-opacity: 0.7"/>
     </g>
    </g>
    <g id="text_16">
     <!-- 1.0 -->
     <g transform="translate(74.33125 55.09625) scale(0.1 -0.1)">
      <use xlink:href="#DejaVuSans-31"/>
      <use xlink:href="#DejaVuSans-2e" transform="translate(63.623047 0)"/>
      <use xlink:href="#DejaVuSans-30" transform="translate(95.410156 0)"/>
     </g>
    </g>
    <g id="PathCollection_6">
     <g>
      <use xlink:href="#m0f252803e2" x="56.33125" y="67.149375" style="fill: #d62728; fill-opacity: 0.7; stroke: #d62728; stroke-opacity: 0.7"/>
     </g>
    </g>
    <g id="text_17">
     <!-- 2.0 -->
     <g transform="translate(74.33125 69.774375) scale(0.1 -0.1)">
      <use xlink:href="#DejaVuSans-32"/>
      <use xlink:href="#DejaVuSans-2e" transform="translate(63.623047 0)"/>
      <use xlink:href="#DejaVuSans-30" transform="translate(95.410156 0)"/>
     </g>
    </g>
    <g id="PathCollection_7">
     <g>
      <use xlink:href="#m1510329d7c" x="120.234375" y="52.47125" style="fill: #e377c2; fill-opacity: 0.7; stroke: #e377c2; stroke-opacity: 0.7"/>
     </g>
    </g>
    <g id="text_18">
     <!-- 3.0 -->
     <g transform="translate(138.234375 55.09625) scale(0.1 -0.1)">
      <defs>
       <path id="DejaVuSans-33" d="M 2597 2516 
Q 3050 2419 3304 2112 
Q 3559 1806 3559 1356 
Q 3559 666 3084 287 
Q 2609 -91 1734 -91 
Q 1441 -91 1130 -33 
Q 819 25 488 141 
L 488 750 
Q 750 597 1062 519 
Q 1375 441 1716 441 
Q 2309 441 2620 675 
Q 2931 909 2931 1356 
Q 2931 1769 2642 2001 
Q 2353 2234 1838 2234 
L 1294 2234 
L 1294 2753 
L 1863 2753 
Q 2328 2753 2575 2939 
Q 2822 3125 2822 3475 
Q 2822 3834 2567 4026 
Q 2313 4219 1838 4219 
Q 1578 4219 1281 4162 
Q 984 4106 628 3988 
L 628 4550 
Q 988 4650 1302 4700 
Q 1616 4750 1894 4750 
Q 2613 4750 3031 4423 
Q 3450 4097 3450 3541 
Q 3450 3153 3228 2886 
Q 3006 2619 2597 2516 
z
" transform="scale(0.015625)"/>
      </defs>
      <use xlink:href="#DejaVuSans-33"/>
      <use xlink:href="#DejaVuSans-2e" transform="translate(63.623047 0)"/>
      <use xlink:href="#DejaVuSans-30" transform="translate(95.410156 0)"/>
     </g>
    </g>
    <g id="PathCollection_8">
     <g>
      <use xlink:href="#mbe48d5cf11" x="184.1375" y="52.47125" style="fill: #17becf; fill-opacity: 0.7; stroke: #17becf; stroke-opacity: 0.7"/>
     </g>
    </g>
    <g id="text_19">
     <!-- 4.0 -->
     <g transform="translate(202.1375 55.09625) scale(0.1 -0.1)">
      <use xlink:href="#DejaVuSans-34"/>
      <use xlink:href="#DejaVuSans-2e" transform="translate(63.623047 0)"/>
      <use xlink:href="#DejaVuSans-30" transform="translate(95.410156 0)"/>
     </g>
    </g>
    <g id="line2d_28">
     <path d="M 238.040625 51.59625 
L 248.040625 51.59625 
L 258.040625 51.59625 
" style="fill: none; stroke: #000000; stroke-width: 2.5; stroke-linecap: square"/>
    </g>
    <g id="text_20">
     <!-- Global fit: slope=0.40%/g, $R^2$=0.03 -->
     <g transform="translate(266.040625 55.09625) scale(0.1 -0.1)">
      <defs>
       <path id="DejaVuSans-47" d="M 3809 666 
L 3809 1919 
L 2778 1919 
L 2778 2438 
L 4434 2438 
L 4434 434 
Q 4069 175 3628 42 
Q 3188 -91 2688 -91 
Q 1594 -91 976 548 
Q 359 1188 359 2328 
Q 359 3472 976 4111 
Q 1594 4750 2688 4750 
Q 3144 4750 3555 4637 
Q 3966 4525 4313 4306 
L 4313 3634 
Q 3963 3931 3569 4081 
Q 3175 4231 2741 4231 
Q 1884 4231 1454 3753 
Q 1025 3275 1025 2328 
Q 1025 1384 1454 906 
Q 1884 428 2741 428 
Q 3075 428 3337 486 
Q 3600 544 3809 666 
z
" transform="scale(0.015625)"/>
       <path id="DejaVuSans-3a" d="M 750 794 
L 1409 794 
L 1409 0 
L 750 0 
L 750 794 
z
M 750 3309 
L 1409 3309 
L 1409 2516 
L 750 2516 
L 750 3309 
z
" transform="scale(0.015625)"/>
       <path id="DejaVuSans-70" d="M 1159 525 
L 1159 -1331 
L 581 -1331 
L 581 3500 
L 1159 3500 
L 1159 2969 
Q 1341 3281 1617 3432 
Q 1894 3584 2278 3584 
Q 2916 3584 3314 3078 
Q 3713 2572 3713 1747 
Q 3713 922 3314 415 
Q 2916 -91 2278 -91 
Q 1894 -91 1617 61 
Q 1341 213 1159 525 
z
M 3116 1747 
Q 3116 2381 2855 2742 
Q 2594 3103 2138 3103 
Q 1681 3103 1420 2742 
Q 1159 2381 1159 1747 
Q 1159 1113 1420 752 
Q 1681 391 2138 391 
Q 2594 391 2855 752 
Q 3116 1113 3116 1747 
z
" transform="scale(0.015625)"/>
       <path id="DejaVuSans-3d" d="M 678 2906 
L 4684 2906 
L 4684 2381 
L 678 2381 
L 678 2906 
z
M 678 1631 
L 4684 1631 
L 4684 1100 
L 678 1100 
L 678 1631 
z
" transform="scale(0.015625)"/>
       <path id="DejaVuSans-2f" d="M 1625 4666 
L 2156 4666 
L 531 -594 
L 0 -594 
L 1625 4666 
z
" transform="scale(0.015625)"/>
       <path id="DejaVuSans-2c" d="M 750 794 
L 1409 794 
L 1409 256 
L 897 -744 
L 494 -744 
L 750 256 
L 750 794 
z
" transform="scale(0.015625)"/>
       <path id="DejaVuSans-Oblique-52" d="M 1613 4147 
L 1294 2491 
L 2106 2491 
Q 2584 2491 2879 2755 
Q 3175 3019 3175 3444 
Q 3175 3784 2976 3965 
Q 2778 4147 2406 4147 
L 1613 4147 
z
M 2772 2241 
Q 2972 2194 3105 2009 
Q 3238 1825 3413 1275 
L 3809 0 
L 3144 0 
L 2778 1197 
Q 2638 1659 2453 1815 
Q 2269 1972 1888 1972 
L 1191 1972 
L 806 0 
L 172 0 
L 1081 4666 
L 2503 4666 
Q 3150 4666 3495 4373 
Q 3841 4081 3841 3531 
Q 3841 3044 3547 2687 
Q 3253 2331 2772 2241 
z
" transform="scale(0.015625)"/>
      </defs>
      <use xlink:href="#DejaVuSans-47" transform="translate(0 0.765625)"/>
      <use xlink:href="#DejaVuSans-6c" transform="translate(77.490234 0.765625)"/>
      <use xlink:href="#DejaVuSans-6f" transform="translate(105.273438 0.765625)"/>
      <use xlink:href="#DejaVuSans-62" transform="translate(166.455078 0.765625)"/>
      <use xlink:href="#DejaVuSans-61" transform="translate(229.931641 0.765625)"/>
      <use xlink:href="#DejaVuSans-6c" transform="translate(291.210938 0.765625)"/>
      <use xlink:href="#DejaVuSans-20" transform="translate(318.994141 0.765625)"/>
      <use xlink:href="#DejaVuSans-66" transform="translate(350.78125 0.765625)"/>
      <use xlink:href="#DejaVuSans-69" transform="translate(385.986328 0.765625)"/>
      <use xlink:href="#DejaVuSans-74" transform="translate(413.769531 0.765625)"/>
      <use xlink:href="#DejaVuSans-3a" transform="translate(452.978516 0.765625)"/>
      <use xlink:href="#DejaVuSans-20" transform="translate(486.669922 0.765625)"/>
      <use xlink:href="#DejaVuSans-73" transform="translate(518.457031 0.765625)"/>
      <use xlink:href="#DejaVuSans-6c" transform="translate(570.556641 0.765625)"/>
      <use xlink:href="#DejaVuSans-6f" transform="translate(598.339844 0.765625)"/>
      <use xlink:href="#DejaVuSans-70" transform="translate(659.521484 0.765625)"/>
      <use xlink:href="#DejaVuSans-65" transform="translate(722.998047 0.765625)"/>
      <use xlink:href="#DejaVuSans-3d" transform="translate(784.521484 0.765625)"/>
      <use xlink:href="#DejaVuSans-30" transform="translate(868.310547 0.765625)"/>
      <use xlink:href="#DejaVuSans-2e" transform="translate(931.933594 0.765625)"/>
      <use xlink:href="#DejaVuSans-34" transform="translate(963.720703 0.765625)"/>
      <use xlink:href="#DejaVuSans-30" transform="translate(1027.34375 0.765625)"/>
      <use xlink:href="#DejaVuSans-25" transform="translate(1090.966797 0.765625)"/>
      <use xlink:href="#DejaVuSans-2f" transform="translate(1185.986328 0.765625)"/>
      <use xlink:href="#DejaVuSans-67" transform="translate(1219.677734 0.765625)"/>
      <use xlink:href="#DejaVuSans-2c" transform="translate(1283.154297 0.765625)"/>
      <use xlink:href="#DejaVuSans-20" transform="translate(1314.941406 0.765625)"/>
      <use xlink:href="#DejaVuSans-Oblique-52" transform="translate(1346.728516 0.765625)"/>
      <use xlink:href="#DejaVuSans-32" transform="translate(1423.227708 39.046875) scale(0.7)"/>
      <use xlink:href="#DejaVuSans-3d" transform="translate(1470.498216 0.765625)"/>
      <use xlink:href="#DejaVuSans-30" transform="translate(1554.287279 0.765625)"/>
      <use xlink:href="#DejaVuSans-2e" transform="translate(1617.910326 0.765625)"/>
      <use xlink:href="#DejaVuSans-30" transform="translate(1649.697435 0.765625)"/>
      <use xlink:href="#DejaVuSans-33" transform="translate(1713.320482 0.765625)"/>
     </g>
    </g>
   </g>
  </g>
 </g>
 <defs>
  <clipPath id="p15fc64ea3b">
   <rect x="34.240625" y="22.318125" width="418.5" height="277.2"/>
  </clipPath>
 </defs>
</svg>
